<svg version="1.1" xmlns="http://www.w3.org/2000/svg" style="display: block;" viewBox="0 0 2048 2048" width="1024" height="1024" preserveAspectRatio="none">
<defs>
	<linearGradient id="Gradient1" gradientUnits="userSpaceOnUse" x1="965.37" y1="1242.26" x2="948.138" y2="1148.41">
		<stop class="stop0" offset="0" stop-opacity="1" stop-color="rgb(209,132,81)"/>
		<stop class="stop1" offset="1" stop-opacity="1" stop-color="rgb(225,163,105)"/>
	</linearGradient>
	<linearGradient id="Gradient2" gradientUnits="userSpaceOnUse" x1="1098.57" y1="1229.83" x2="1070.66" y2="1087.71">
		<stop class="stop0" offset="0" stop-opacity="1" stop-color="rgb(201,119,70)"/>
		<stop class="stop1" offset="1" stop-opacity="1" stop-color="rgb(221,152,101)"/>
	</linearGradient>
</defs>
<path transform="translate(0,0)" fill="rgb(103,48,25)" d="M 813.639 513.174 C 834.674 498.543 854.747 482.527 875.775 467.859 C 946.007 418.869 1078.88 332.94 1167.69 341.751 C 1242.57 349.18 1309.11 405.441 1355.4 461.615 C 1363.99 455.223 1380.79 449.282 1387.79 445.745 C 1400.59 439.275 1492.19 412.499 1495.29 434.097 C 1498.13 453.874 1465.85 538.911 1446.76 551.517 C 1436.97 557.982 1406.71 559.985 1394.32 562.202 C 1425.15 574.959 1438.22 569.389 1408.32 600.29 C 1411.27 636.43 1413.64 671.511 1411.4 707.775 C 1409.28 742.071 1406.5 778.101 1401.69 812.122 C 1438.59 848.544 1489.86 906.286 1482.4 962.053 C 1474.75 1019.29 1396.26 1036.88 1348.57 1029.25 C 1330.78 1074.67 1303.73 1117.05 1266.28 1148.76 C 1254.59 1158.67 1240.68 1169.78 1224.87 1170.87 C 1190.99 1199.84 1169.83 1213.16 1129.65 1231.99 C 1131.29 1248.46 1132.05 1267.21 1133.21 1283.9 C 1203.33 1313.71 1253.59 1436.54 1271.17 1506.72 C 1273.3 1515.22 1278.25 1530.31 1275.66 1538.63 C 1273.35 1541.55 1270.85 1541.98 1267.29 1543.27 C 1247.24 1555.9 1234.42 1565.83 1212.44 1576.25 C 1178.21 1593.29 1135.7 1609.57 1098.1 1616.73 C 1089.88 1618.37 1081.39 1620.21 1073.17 1621.7 L 1064.8 1622.25 C 1058.25 1620.47 1031.42 1623.16 1022.95 1623.55 C 1013.12 1623.97 1003.27 1624.03 993.429 1623.76 C 951.118 1624.24 912.329 1620.95 871.457 1609.95 C 864.236 1607.12 860.322 1605.2 852.508 1606.45 C 848.3 1606.78 845.216 1606.55 842.553 1602.88 C 838.183 1583.44 868.213 1479.46 875.934 1457.22 C 873.918 1458.27 871.884 1459.29 869.832 1460.27 C 854.01 1467.78 839.475 1465.54 832.374 1448.04 C 826.003 1432.33 828.965 1410.49 832.921 1394.46 C 834.65 1387.45 839.724 1379.23 840.456 1371.65 C 841.154 1348.4 838.618 1329.62 847.425 1307.28 C 854.008 1290.59 868.164 1276.23 887.528 1284.17 C 900.287 1289.41 910.84 1312.95 914.926 1325.63 C 922.86 1327.43 923.979 1327.59 931.44 1331.09 C 944.94 1318.87 953.624 1312.6 969.807 1304.53 C 968.89 1290.55 968.327 1276.56 968.118 1262.56 C 824.876 1258.67 712.515 1193.43 686.829 1043.89 C 646.957 1037.07 563.267 1021.66 564.249 966.678 C 564.042 949.708 580.884 935.047 597.063 932.93 C 625.233 929.244 660.936 930.237 689.097 933.243 C 684.62 875.615 688.869 817.641 701.701 761.282 C 687.825 767.562 675.163 775.042 663.273 784.7 C 656.128 790.504 646.264 806.792 637.144 806.041 C 631.658 802.324 629.668 794.337 628.144 787.917 C 616.684 739.646 629.054 695.49 653.54 654.014 C 647.907 648.524 642.417 642.89 637.076 637.118 C 591.31 586.799 585.376 527.78 665.827 513.034 C 715.848 503.865 763.491 508.055 813.639 513.174 z"/>
<path transform="translate(0,0)" fill="rgb(221,148,79)" d="M 1038.82 1337.12 C 1052.34 1335.42 1063.15 1332.83 1076.04 1328.74 C 1089.96 1336.2 1096.84 1339.17 1101.67 1355.17 C 1102.32 1357.32 1102.89 1359.49 1103.39 1361.67 C 1093.19 1369.43 1087.6 1374.97 1079.79 1385.32 C 1043.83 1451.33 1051.71 1516.94 1056.61 1589.17 C 1057.19 1597.72 1058.21 1617.12 1064.8 1622.25 C 1058.25 1620.47 1031.42 1623.16 1022.95 1623.55 C 1013.12 1623.97 1003.27 1624.03 993.429 1623.76 C 951.118 1624.24 912.329 1620.95 871.457 1609.95 C 864.236 1607.12 860.322 1605.2 852.508 1606.45 C 854.838 1599.63 862.192 1560.07 864.237 1549.86 C 871.858 1511.84 880.315 1485.77 892.883 1449.23 C 895.867 1441.2 898.518 1434.94 902.088 1427.14 C 905.357 1426.88 908.883 1426.67 912.106 1426.25 C 916.447 1437.64 920.425 1446.95 926.735 1457.46 C 982.895 1540.1 1031.38 1475.13 1017.46 1402.67 C 1026.14 1386.31 1035.5 1369.34 1036.46 1350.45 C 1036.62 1347.36 1037.15 1339.15 1038.82 1337.12 z"/>
<path transform="translate(0,0)" fill="rgb(193,118,70)" d="M 1010.81 1622.83 C 1011.99 1571.92 1022.41 1506.05 1037.05 1457.14 C 1042.35 1439.42 1063.16 1393.78 1079.79 1385.32 C 1043.83 1451.33 1051.71 1516.94 1056.61 1589.17 C 1057.19 1597.72 1058.21 1617.12 1064.8 1622.25 C 1058.25 1620.47 1031.42 1623.16 1022.95 1623.55 C 1013.12 1623.97 1003.27 1624.03 993.429 1623.76 C 998.996 1622.42 1005.01 1622.81 1010.81 1622.83 z"/>
<path transform="translate(0,0)" fill="rgb(193,118,70)" d="M 1017.46 1402.67 C 1026.14 1386.31 1035.5 1369.34 1036.46 1350.45 C 1036.62 1347.36 1037.15 1339.15 1038.82 1337.12 C 1045.36 1343.58 1047.14 1352.67 1047.18 1361.52 C 1047.27 1381.97 1037.3 1400.16 1032.84 1419.54 C 1030.87 1429.51 1033.16 1440.51 1033.12 1450.5 C 1033.04 1469.16 1025.38 1492.64 1012.31 1506.02 C 993.326 1525.46 963.968 1517.42 948.016 1498.4 C 939.548 1488.3 928.394 1474.23 926.1 1460.64 C 926.029 1460.01 926.552 1458.17 926.735 1457.46 C 982.895 1540.1 1031.38 1475.13 1017.46 1402.67 z"/>
<path transform="translate(0,0)" fill="rgb(250,210,140)" d="M 892.883 1449.23 C 897.525 1453.15 896.182 1453.21 902.438 1451.71 C 903.613 1454.69 897.703 1473.5 896.659 1477.97 C 887.227 1518.42 874.867 1568.81 871.457 1609.95 C 864.236 1607.12 860.322 1605.2 852.508 1606.45 C 854.838 1599.63 862.192 1560.07 864.237 1549.86 C 871.858 1511.84 880.315 1485.77 892.883 1449.23 z"/>
<path transform="translate(0,0)" fill="rgb(193,118,70)" d="M 950.391 1527.66 C 954.106 1537.55 948.765 1612.81 942.53 1618.93 C 936.756 1606.52 943.071 1539.08 950.391 1527.66 z"/>
<path transform="translate(0,0)" fill="rgb(193,118,70)" d="M 913.697 1482.88 C 919.343 1490.93 904.934 1555.52 900.813 1567.08 L 900.249 1567.03 C 899.179 1564.47 899.691 1558.71 899.799 1555.74 C 900.514 1530.87 905.206 1506.27 913.697 1482.88 z"/>
<path transform="translate(0,0)" fill="rgb(221,148,79)" d="M 1135.66 1361.56 C 1218.85 1355.26 1236.96 1442.7 1256.96 1505.25 C 1260.49 1516.28 1262.39 1533.29 1267.29 1543.27 C 1247.24 1555.9 1234.42 1565.83 1212.44 1576.25 C 1178.21 1593.29 1135.7 1609.57 1098.1 1616.73 C 1087.59 1547.77 1075.98 1455.83 1106.87 1390.41 C 1113.71 1375.93 1131.09 1369.39 1134.58 1362.42 L 1135.66 1361.56 z"/>
<path transform="translate(0,0)" fill="rgb(193,118,70)" d="M 1135.66 1361.56 C 1218.85 1355.26 1236.96 1442.7 1256.96 1505.25 C 1260.49 1516.28 1262.39 1533.29 1267.29 1543.27 C 1247.24 1555.9 1234.42 1565.83 1212.44 1576.25 C 1208.39 1558.98 1205.86 1540.21 1202.49 1522.59 C 1198.61 1501.98 1193.52 1481.62 1187.23 1461.62 C 1195.09 1451.3 1196.04 1437.29 1189.64 1426 C 1183.24 1414.71 1170.73 1408.32 1157.84 1409.76 L 1164.46 1408.69 L 1164.84 1407.38 C 1160.72 1393.54 1144.51 1373.41 1135.66 1361.56 z"/>
<path transform="translate(0,0)" fill="rgb(123,61,39)" d="M 1157.84 1409.76 C 1170.73 1408.32 1183.24 1414.71 1189.64 1426 C 1196.04 1437.29 1195.09 1451.3 1187.23 1461.62 C 1178.28 1473.38 1162.52 1477.6 1148.89 1471.89 C 1135.27 1466.18 1127.23 1451.98 1129.33 1437.36 C 1131.44 1422.74 1143.16 1411.39 1157.84 1409.76 z"/>
<path transform="translate(0,0)" fill="rgb(193,118,70)" d="M 1155.97 1422.78 C 1162.94 1420.59 1170.55 1422.34 1175.87 1427.36 C 1181.2 1432.37 1183.4 1439.86 1181.63 1446.96 C 1179.87 1454.05 1174.41 1459.64 1167.36 1461.57 C 1156.73 1464.49 1145.72 1458.35 1142.61 1447.77 C 1139.51 1437.19 1145.45 1426.08 1155.97 1422.78 z"/>
<path transform="translate(0,0)" fill="rgb(193,118,70)" d="M 1098.2 1423.56 L 1101.21 1427.1 C 1102.01 1446.82 1102.86 1467.91 1103.92 1487.5 C 1104.5 1498.03 1109.93 1542.33 1107.87 1548.9 C 1094.87 1524.32 1095.09 1452.64 1098.2 1423.56 z"/>
<path transform="translate(0,0)" fill="rgb(193,118,70)" d="M 1126.16 1494.74 C 1133.64 1508.34 1142.34 1578.49 1139.76 1595.19 L 1138.45 1594.8 C 1129.92 1571.73 1124.48 1519.97 1126.16 1494.74 z"/>
<path transform="translate(0,0)" fill="rgb(250,210,140)" d="M 1073.17 1621.7 C 1072.44 1605.7 1069.62 1588.85 1068.56 1572.69 C 1064.27 1507.61 1054.35 1385.46 1134.58 1362.42 C 1131.09 1369.39 1113.71 1375.93 1106.87 1390.41 C 1075.98 1455.83 1087.59 1547.77 1098.1 1616.73 C 1089.88 1618.37 1081.39 1620.21 1073.17 1621.7 z"/>
<path transform="translate(0,0)" fill="rgb(193,118,70)" d="M 1130.75 1297.88 C 1157.22 1310.34 1177.69 1338.09 1193.91 1361.49 C 1160.7 1343.66 1136.78 1342.01 1103.39 1361.67 C 1102.89 1359.49 1102.32 1357.32 1101.67 1355.17 C 1096.84 1339.17 1089.96 1336.2 1076.04 1328.74 C 1097.55 1321.24 1114.86 1315.05 1130.75 1297.88 z"/>
<path transform="translate(0,0)" fill="rgb(240,185,111)" d="M 717.322 755.84 C 796.616 729.049 888.793 741.106 965.42 696.193 C 971.674 692.527 1009.19 670.724 1010.58 670.419 C 1018.1 676.899 1013.87 692.623 1013.06 702.11 C 1007.71 764.698 1016.94 815.834 1038.21 874.366 C 1052.97 904.92 1067.44 929.824 1092.21 954.163 C 1096.31 958.192 1100.45 962.582 1105.76 964.481 C 1109.12 961.714 1113.11 956.094 1115.21 952.137 C 1138.77 907.605 1204.71 901.493 1225.44 953.884 C 1250.18 1006.21 1200.38 1091.02 1137.17 1072.11 C 1127.82 1069.31 1113.02 1055.73 1104.17 1059.37 C 1102.16 1065.6 1108.67 1071.25 1112.8 1074.93 C 1132.96 1087.25 1147.41 1091.7 1171.14 1085.89 C 1173.38 1085.34 1175.62 1084.76 1177.85 1084.17 C 1184.23 1110.9 1196.14 1141.77 1215.35 1162.02 C 1148.46 1219.47 1062.84 1250.4 974.684 1248.97 C 965.898 1249.45 955.345 1249.21 946.647 1247.99 C 904.395 1248.14 839.386 1229.2 805.56 1205.86 C 802.056 1203.91 800.904 1203.28 797.813 1200.8 C 771.17 1184.58 744.682 1155.92 730.526 1128.03 C 735.598 1129.11 741.894 1130.03 747.097 1130.93 C 790.234 1134.7 821.387 1122.53 849.212 1089.26 C 852.7 1093.58 856.081 1099.25 862.25 1098.66 C 873.175 1087.93 840.517 1058.54 829.737 1072.67 L 830.121 1075.46 C 832.18 1078.7 833.982 1079.07 837.578 1080.78 L 838.965 1081.42 C 833.12 1088.9 826.176 1095.44 818.369 1100.83 C 794.558 1117.44 767.167 1120.39 739.155 1115.56 C 731.515 1113.87 728.162 1113.15 720.99 1110.19 C 713.777 1096.7 708.483 1077.27 704.247 1062.47 C 702.896 1056.07 702.301 1051.42 701.542 1044.92 C 710.248 1045.04 716.498 1045.57 724.268 1040.73 C 738.543 1031.82 744.588 1012.45 748.109 997.125 C 748.057 972.841 744.943 942.064 716.673 935.447 L 701.794 933.816 C 702.427 916.841 701.357 898.363 701.519 881.061 C 701.652 852.477 704.062 823.949 708.724 795.748 C 709.984 784.79 713.729 766.617 717.322 755.84 z"/>
<path transform="translate(0,0)" fill="url(#Gradient2)" d="M 1112.8 1074.93 C 1132.96 1087.25 1147.41 1091.7 1171.14 1085.89 C 1173.38 1085.34 1175.62 1084.76 1177.85 1084.17 C 1184.23 1110.9 1196.14 1141.77 1215.35 1162.02 C 1148.46 1219.47 1062.84 1250.4 974.684 1248.97 C 965.898 1249.45 955.345 1249.21 946.647 1247.99 C 950.042 1245.46 968.406 1239.89 973.411 1238.28 C 1024.62 1221.82 1082.95 1166.22 1097.76 1113.86 C 1105.23 1102.87 1108.12 1093.67 1111.46 1081 C 1111.56 1079.14 1112.32 1076.8 1112.8 1074.93 z"/>
<path transform="translate(0,0)" fill="rgb(193,118,70)" d="M 1111.46 1081 C 1114.3 1085.82 1111.82 1097.34 1110.25 1102.84 C 1094.63 1157.6 1061.01 1202 1011.55 1230.68 C 1002.92 1235.68 978.971 1245.13 974.684 1248.97 C 965.898 1249.45 955.345 1249.21 946.647 1247.99 C 950.042 1245.46 968.406 1239.89 973.411 1238.28 C 1024.62 1221.82 1082.95 1166.22 1097.76 1113.86 C 1105.23 1102.87 1108.12 1093.67 1111.46 1081 z"/>
<path transform="translate(0,0)" fill="rgb(193,118,70)" d="M 1158.46 1125.67 C 1159.13 1128.18 1159.03 1128.62 1158.47 1131.21 C 1152.74 1157.58 1130.04 1186.48 1107.55 1200.76 C 1105.56 1194.93 1113.6 1187.85 1117.62 1183.4 C 1133.64 1165.69 1148.18 1147.34 1158.46 1125.67 z"/>
<path transform="translate(0,0)" fill="rgb(221,148,79)" d="M 717.322 755.84 C 796.616 729.049 888.793 741.106 965.42 696.193 C 971.674 692.527 1009.19 670.724 1010.58 670.419 C 1018.1 676.899 1013.87 692.623 1013.06 702.11 C 1007.71 764.698 1016.94 815.834 1038.21 874.366 C 1023.09 866.81 999.12 813.029 993.945 796.581 C 987.96 777.557 983.086 755.684 978.763 736.048 C 977.001 756.178 974.531 776.38 973.033 796.476 C 971.736 813.881 972.013 831.717 970.261 849.138 C 962.451 799.923 961.936 781.669 967.862 731.533 C 947.09 740.204 921.567 750.302 899.513 755.165 C 860.203 763.831 817.547 767.297 777.466 772.473 C 774.727 772.952 772.494 773.132 770.027 774.408 C 758.63 777.182 732.352 782.834 722.979 789.21 C 718.8 791.31 713.064 794.489 708.724 795.748 C 709.984 784.79 713.729 766.617 717.322 755.84 z"/>
<path transform="translate(0,0)" fill="url(#Gradient1)" d="M 908.784 1214.56 C 991.592 1205.49 1045.19 1176.32 1097.09 1114.42 C 1097.31 1114.23 1097.54 1114.05 1097.76 1113.86 C 1082.95 1166.22 1024.62 1221.82 973.411 1238.28 C 968.406 1239.89 950.042 1245.46 946.647 1247.99 C 904.395 1248.14 839.386 1229.2 805.56 1205.86 C 813.422 1204.09 823.888 1207 831.878 1208.56 C 848.643 1211.82 865.335 1214.48 882.451 1215.16 C 888.522 1216.62 902.949 1216.39 908.784 1214.56 z"/>
<path transform="translate(0,0)" fill="rgb(250,210,140)" d="M 722.979 789.21 C 721.359 812.607 717.449 836.285 716.781 859.983 C 716.071 885.165 717.117 910.237 716.673 935.447 L 701.794 933.816 C 702.427 916.841 701.357 898.363 701.519 881.061 C 701.652 852.477 704.062 823.949 708.724 795.748 C 713.064 794.489 718.8 791.31 722.979 789.21 z"/>
<path transform="translate(0,0)" fill="rgb(250,210,140)" d="M 1105.76 964.481 C 1109.12 961.714 1113.11 956.094 1115.21 952.137 C 1138.77 907.605 1204.71 901.493 1225.44 953.884 C 1221.1 953.975 1217.06 947.924 1213.51 945.225 C 1182.27 921.499 1150.42 932.139 1125.3 958.752 C 1120.44 963.908 1115.36 969.547 1108.02 967.504 C 1106.23 965.814 1106.46 966.534 1105.76 964.481 z"/>
<path transform="translate(0,0)" fill="rgb(221,148,79)" d="M 748.109 997.125 C 753.294 1006.09 751.771 1025.08 749.091 1035.01 C 742.801 1058.3 730.922 1063.45 708.626 1063.13 L 704.247 1062.47 C 702.896 1056.07 702.301 1051.42 701.542 1044.92 C 710.248 1045.04 716.498 1045.57 724.268 1040.73 C 738.543 1031.82 744.588 1012.45 748.109 997.125 z"/>
<path transform="translate(0,0)" fill="rgb(250,210,140)" d="M 730.526 1128.03 C 735.598 1129.11 741.894 1130.03 747.097 1130.93 C 753.907 1148.58 773.763 1168.93 785.166 1184.37 C 788.303 1188.62 800.645 1195.69 798.914 1200.06 L 797.813 1200.8 C 771.17 1184.58 744.682 1155.92 730.526 1128.03 z"/>
<path transform="translate(0,0)" fill="rgb(250,210,140)" d="M 704.247 1062.47 L 708.626 1063.13 C 711.781 1063.74 714.941 1064.32 718.107 1064.87 C 721.349 1070.67 726.385 1086.05 729.143 1093.1 C 732.146 1100.78 736.332 1108.56 739.155 1115.56 C 731.515 1113.87 728.162 1113.15 720.99 1110.19 C 713.777 1096.7 708.483 1077.27 704.247 1062.47 z"/>
<path transform="translate(0,0)" fill="rgb(221,148,79)" d="M 770.027 774.408 C 772.494 773.132 774.727 772.952 777.466 772.473 C 770.695 799.148 765.74 826.251 762.633 853.596 C 761.375 864.743 761.141 878.263 759.535 888.735 C 755.435 862.421 757.908 827.901 762.968 801.996 C 764.703 793.111 768.742 781.568 770.027 774.408 z"/>
<path transform="translate(0,0)" fill="rgb(221,148,79)" d="M 896.803 1215.13 C 876.3 1195.76 868.163 1175.57 866.598 1147.86 C 872.389 1165.7 879.78 1184.27 891.629 1199.05 C 894.716 1202.9 904.627 1213.54 908.784 1214.56 C 902.949 1216.39 888.522 1216.62 882.451 1215.16 L 896.803 1215.13 z"/>
<path transform="translate(0,0)" fill="rgb(254,254,254)" d="M 805.302 889.946 C 796.454 877.766 819.293 856.104 829.079 849.862 C 843.123 840.996 860.154 838.183 876.302 842.063 C 917.317 852.034 935.504 897.573 927.682 936.43 C 925.969 943 923.428 948.455 918.93 953.575 L 917.274 954.218 L 916.506 953.807 C 907.808 971.728 897.767 985.369 878.042 992.335 C 862.555 997.671 845.563 996.473 830.978 989.016 C 823.341 985.206 812.101 976.064 810.757 967.156 C 797.589 946.778 797.082 931.968 801.504 908.981 L 800.28 906.002 C 800.717 899.408 802.117 895.717 805.302 889.946 z"/>
<path transform="translate(0,0)" fill="rgb(103,48,25)" d="M 801.504 908.981 C 810.346 885.842 823.43 872.368 849.985 882.615 C 855.06 884.574 860.745 887.636 860.26 893.815 C 851.252 894.126 842.008 897.813 842.672 908.528 C 842.949 912.427 844.802 916.044 847.804 918.547 C 856.279 925.574 864.353 918.444 870.18 912.247 C 872.367 922.126 873.012 926.575 872.013 936.806 C 869.439 963.163 843.096 992.917 816.295 972.222 C 814.296 970.709 812.442 969.013 810.757 967.156 C 797.589 946.778 797.082 931.968 801.504 908.981 z"/>
<path transform="translate(0,0)" fill="rgb(103,48,25)" d="M 805.302 889.946 C 796.454 877.766 819.293 856.104 829.079 849.862 C 843.123 840.996 860.154 838.183 876.302 842.063 C 917.317 852.034 935.504 897.573 927.682 936.43 C 924.833 937.207 922.381 937.849 919.588 938.869 C 919.979 931.747 919.798 924.605 919.047 917.511 C 915.436 884.249 892 849.252 853.006 853.788 C 829.224 856.555 818.646 872.103 805.302 889.946 z"/>
<path transform="translate(0,0)" fill="rgb(193,118,70)" d="M 919.588 938.869 C 922.381 937.849 924.833 937.207 927.682 936.43 C 925.969 943 923.428 948.455 918.93 953.575 L 917.274 954.218 L 916.506 953.807 C 918.019 948.801 918.701 944.012 919.588 938.869 z"/>
<path transform="translate(0,0)" fill="rgb(239,145,114)" d="M 944.263 1004.35 C 960.895 1001.92 979.249 1004.37 993.497 1013.67 C 1020.55 1031.32 1013.94 1062.08 986.167 1074.26 C 977.581 1078.03 972.584 1079.31 963.127 1080.98 C 948.566 1082.44 939.015 1082.31 925.013 1078.13 C 885.454 1066.31 882.667 1025.97 920.975 1009.97 C 929.242 1006.52 935.292 1005.62 944.263 1004.35 z"/>
<path transform="translate(0,0)" fill="rgb(221,148,79)" d="M 1129.05 1019.27 C 1114.38 989.51 1172.65 929.244 1199.95 966.02 L 1200.03 967.513 C 1200.31 971.934 1201.61 976.8 1202.39 981.633 C 1204.52 994.72 1198.8 1006.5 1190.16 1016.77 C 1178.88 1030.15 1153.21 1046.62 1135.9 1035.32 C 1132.04 1032.8 1129.12 1024.26 1129.05 1019.27 z"/>
<path transform="translate(0,0)" fill="rgb(123,61,39)" d="M 1129.05 1019.27 C 1114.38 989.51 1172.65 929.244 1199.95 966.02 C 1195.35 969.197 1178.81 962.48 1162.58 970.606 C 1141.9 980.96 1137.74 1013.21 1129.05 1019.27 z"/>
<path transform="translate(0,0)" fill="rgb(103,48,25)" d="M 859.774 767.169 C 883.867 766.072 905.577 776.884 921.435 794.743 C 926.476 800.421 934.796 811.228 926.348 817.581 C 922.684 817.885 922.641 817.533 919.483 815.793 C 903.182 801.829 891.004 791.279 868.709 790.021 C 859.984 789.529 847.075 791.244 842.956 781.815 C 843.009 772.888 852.346 768.827 859.774 767.169 z"/>
<path transform="translate(0,0)" fill="rgb(221,148,79)" d="M 1044.39 1012.82 C 1047.95 1017.64 1047.57 1057.29 1047 1065.1 C 1045.18 1090.13 1037.23 1125.13 1017.7 1142.44 L 1016.34 1142.58 C 1015.62 1140.31 1029.43 1108.7 1031.28 1102.82 C 1040.44 1073.66 1042.4 1043.13 1044.39 1012.82 z"/>
<path transform="translate(0,0)" fill="rgb(240,185,111)" d="M 626.545 600.801 C 619.646 587.885 613.781 573.411 617.69 558.432 C 620.115 549.14 629.23 540.49 637.608 536.63 C 715.378 500.795 864.505 532.268 941.815 556.444 C 1034.29 585.361 1148.64 641.579 1228.95 693.814 C 1250.39 707.303 1275.52 725.238 1295.63 740.696 C 1338.86 770.261 1374.09 804.448 1410.68 841.186 C 1494.85 925.691 1500.39 1021.71 1354.3 1017.68 C 1361.71 994.24 1365.52 976.876 1369.65 952.863 C 1377.47 962.7 1382.29 973.215 1390.9 982.686 C 1386.03 947.474 1353.58 909 1329.8 883.051 C 1251.77 797.905 1149.08 726.328 1046.79 673.393 C 1027.28 663.229 1007.56 653.473 987.644 644.129 C 973.078 637.435 958.061 631.392 943.659 624.561 C 875.64 597.339 752.113 561.021 679.949 578.983 C 680.901 581.336 681.008 583.175 683.398 583.764 C 694.962 586.613 712.661 584.026 724.876 584.382 C 699.306 602.822 680.7 616.964 661.193 642.602 C 653.177 635.559 647.102 629.344 640.662 620.788 C 635.072 614.305 630.403 608.474 626.545 600.801 z"/>
<path transform="translate(0,0)" fill="rgb(221,148,79)" d="M 943.659 624.561 C 953.668 621.095 1078.54 672.957 1097.13 681.116 C 1113.41 688.432 1129.57 696.039 1145.58 703.932 C 1171.79 716.483 1197.43 730.167 1222.45 744.944 C 1241.3 755.97 1280.94 784.271 1304.57 781.658 C 1319.68 779.987 1297.96 748.482 1295.63 740.696 C 1338.86 770.261 1374.09 804.448 1410.68 841.186 C 1494.85 925.691 1500.39 1021.71 1354.3 1017.68 C 1361.71 994.24 1365.52 976.876 1369.65 952.863 C 1377.47 962.7 1382.29 973.215 1390.9 982.686 C 1386.03 947.474 1353.58 909 1329.8 883.051 C 1251.77 797.905 1149.08 726.328 1046.79 673.393 C 1027.28 663.229 1007.56 653.473 987.644 644.129 C 973.078 637.435 958.061 631.392 943.659 624.561 z"/>
<path transform="translate(0,0)" fill="rgb(250,210,140)" d="M 626.545 600.801 C 619.646 587.885 613.781 573.411 617.69 558.432 C 620.115 549.14 629.23 540.49 637.608 536.63 C 715.378 500.795 864.505 532.268 941.815 556.444 C 1034.29 585.361 1148.64 641.579 1228.95 693.814 L 1227.04 695.268 C 1222.71 696.118 1201.18 682.868 1195.77 680.176 C 1118.44 641.732 1038.51 602.291 955.266 577.904 C 869.973 552.918 772.888 528.713 683.803 542.437 C 670.787 544.442 657.283 547.754 645.611 553.786 C 619.593 565.934 631.87 589.011 626.545 600.801 z"/>
<path transform="translate(0,0)" fill="rgb(221,148,79)" d="M 640.662 620.788 L 641.837 618.354 C 638.402 597.124 661.949 582.871 679.949 578.983 C 680.901 581.336 681.008 583.175 683.398 583.764 C 694.962 586.613 712.661 584.026 724.876 584.382 C 699.306 602.822 680.7 616.964 661.193 642.602 C 653.177 635.559 647.102 629.344 640.662 620.788 z"/>
<path transform="translate(0,0)" fill="rgb(123,61,39)" d="M 1027.7 678.551 C 1134.68 736.978 1231.27 797.51 1315.46 887.617 C 1324.22 896.987 1351.65 927.743 1358.3 938.296 C 1348.79 1013.78 1312.19 1096.77 1250.94 1143.84 C 1243.25 1149.75 1236.79 1154.64 1227.35 1157.26 C 1208.79 1136.16 1195.91 1107.22 1189.86 1079.89 C 1241.49 1050.88 1261.21 987.424 1231.24 934.964 C 1222.99 920.51 1214.45 920.512 1206.03 911.387 C 1165.77 893.376 1123.93 907.711 1103.06 946.727 C 1050.9 895.051 1028.45 824.389 1025.88 752.478 C 1023.47 739.239 1026.08 691.943 1027.7 678.551 z"/>
<path transform="translate(0,0)" fill="rgb(147,82,45)" d="M 1026.07 722.78 C 1076.99 753.517 1128.39 791.099 1173.68 829.727 C 1187.62 841.612 1201.83 852.506 1205.42 871.435 C 1209.03 887.058 1208.73 895.755 1206.03 911.387 C 1165.77 893.376 1123.93 907.711 1103.06 946.727 C 1050.9 895.051 1028.45 824.389 1025.88 752.478 C 1025.75 742.97 1025.34 732.12 1026.07 722.78 z"/>
<path transform="translate(0,0)" fill="rgb(193,118,70)" d="M 1067.27 754.697 C 1072.22 758.806 1075.14 781.645 1077.46 789.22 C 1084.37 811.779 1092.7 832.801 1102.95 854.046 C 1107.73 863.953 1115.2 873.66 1118.17 884.125 C 1112.06 883.99 1106.86 880.275 1103.2 875.708 C 1078.55 844.882 1065.5 792.714 1067.27 754.697 z"/>
<path transform="translate(0,0)" fill="rgb(193,118,70)" d="M 1133.74 814.416 C 1134.94 815.266 1136.52 816.643 1136.99 818.017 C 1141.11 830.144 1156.75 853.629 1152.88 865.861 C 1138.79 863.474 1131.42 826.234 1133.74 814.416 z"/>
<path transform="translate(0,0)" fill="rgb(240,185,111)" d="M 914.086 459.105 C 955.015 431.363 1007.85 400.238 1053.06 380.738 C 1110.65 355.897 1154.11 344.703 1214.01 367.71 C 1224.94 371.893 1241.88 380.035 1251.43 387.13 C 1283.12 405.809 1321.69 441.641 1345.81 470.106 C 1337.55 485.765 1334.99 500.818 1329.94 517.678 C 1328.08 509.311 1326.79 494.406 1322.13 488.846 C 1310.35 483.346 1289.22 511.384 1282.76 519.846 C 1265.15 542.432 1257.76 566.133 1252.14 593.495 C 1161.81 533.786 1061.63 490.518 956.224 465.688 C 942.314 462.699 928.245 460.501 914.086 459.105 z"/>
<path transform="translate(0,0)" fill="rgb(250,210,140)" d="M 914.086 459.105 C 955.015 431.363 1007.85 400.238 1053.06 380.738 C 1110.65 355.897 1154.11 344.703 1214.01 367.71 C 1211.46 370.304 1210.59 370.615 1206.06 370.49 C 1187.78 369.984 1165.25 370.479 1147.41 373.622 C 1091.61 383.456 1000.64 430.346 956.224 465.688 C 942.314 462.699 928.245 460.501 914.086 459.105 z"/>
<path transform="translate(0,0)" fill="rgb(221,148,79)" d="M 1251.43 387.13 C 1283.12 405.809 1321.69 441.641 1345.81 470.106 C 1337.55 485.765 1334.99 500.818 1329.94 517.678 C 1328.08 509.311 1326.79 494.406 1322.13 488.846 C 1310.35 483.346 1289.22 511.384 1282.76 519.846 C 1279.34 465.978 1270.17 437.059 1251.43 387.13 z"/>
<path transform="translate(0,0)" fill="rgb(101,139,179)" d="M 895.871 470.56 C 909.444 471.377 920.743 472.967 934.14 474.912 C 1005.88 488.376 1072.46 512.301 1137.96 544.261 C 1165.12 557.516 1195.96 573.23 1220.89 590.239 C 1226.16 592.53 1240.47 601.32 1245.77 604.78 C 1293.16 635.705 1361.24 687.857 1396.22 732.064 C 1396.38 755.168 1391.92 778.88 1390.7 802.048 C 1306.28 724.759 1211.06 660.177 1108.02 610.335 C 1062.24 588.137 1023.21 572.37 976.43 553.623 C 940.17 540.23 904.99 532.058 867.72 523.043 C 856.034 520.721 844.479 518.347 832.704 516.5 C 850.132 502.723 877.241 482.605 895.871 470.56 z"/>
<path transform="translate(0,0)" fill="rgb(76,108,144)" d="M 976.43 553.623 C 982.936 550.759 1009.35 560.643 1017.08 563.047 C 1056.86 575.025 1096.21 588.415 1135.04 603.191 C 1163.57 614.274 1192.24 627.418 1220.8 638.628 C 1229.88 642.194 1248.78 651.499 1257.33 652.723 C 1271.39 634.228 1225.23 604.41 1220.89 590.239 C 1226.16 592.53 1240.47 601.32 1245.77 604.78 C 1293.16 635.705 1361.24 687.857 1396.22 732.064 C 1396.38 755.168 1391.92 778.88 1390.7 802.048 C 1306.28 724.759 1211.06 660.177 1108.02 610.335 C 1062.24 588.137 1023.21 572.37 976.43 553.623 z"/>
<path transform="translate(0,0)" fill="rgb(136,175,208)" d="M 895.871 470.56 C 909.444 471.377 920.743 472.967 934.14 474.912 C 923.418 483.938 910.46 491.741 899.032 500.076 C 888.611 507.676 878.381 515.878 867.72 523.043 C 856.034 520.721 844.479 518.347 832.704 516.5 C 850.132 502.723 877.241 482.605 895.871 470.56 z"/>
<path transform="translate(0,0)" fill="rgb(123,61,39)" d="M 745.986 587.909 C 821.692 594.902 927.749 629.377 995.874 663.449 C 941.818 698.613 886.186 716.286 822.215 723.002 C 775.38 727.919 723.687 734.036 681.678 756.225 C 676.163 759.138 669.575 763.757 664.222 766.203 C 660.465 769.309 646.843 781.355 643.939 784.943 C 642.26 785.991 643.159 785.723 641.259 785.805 C 636.118 776.021 637.881 742.991 638.971 731.531 C 642.052 699.15 667.299 647.374 692.985 627.691 C 706.78 613.479 728.202 596.741 745.986 587.909 z"/>
<path transform="translate(0,0)" fill="rgb(147,82,45)" d="M 707.192 626.641 C 739.218 624.434 805.139 639.858 837.633 647.177 C 842.246 648.216 859.228 652.232 863.348 653.849 C 845.22 663.967 778.847 673.61 771.84 684.326 C 774.56 686.881 782.317 686.086 786.662 686.737 C 774.749 692.419 760.17 695.925 747.833 700.65 C 724.328 709.65 671.003 739.757 664.222 766.203 C 660.465 769.309 646.843 781.355 643.939 784.943 C 642.26 785.991 643.159 785.723 641.259 785.805 C 636.118 776.021 637.881 742.991 638.971 731.531 C 642.052 699.15 667.299 647.374 692.985 627.691 C 697.407 628.087 702.693 627.183 707.192 626.641 z"/>
<path transform="translate(0,0)" fill="rgb(193,118,70)" d="M 692.985 627.691 C 697.407 628.087 702.693 627.183 707.192 626.641 C 701.032 636.754 690.875 644.901 684.297 654.651 C 658.557 693.279 644.54 738.528 643.939 784.943 C 642.26 785.991 643.159 785.723 641.259 785.805 C 636.118 776.021 637.881 742.991 638.971 731.531 C 642.052 699.15 667.299 647.374 692.985 627.691 z"/>
<path transform="translate(0,0)" fill="rgb(193,118,70)" d="M 775.496 645.245 C 778.423 645.065 777.382 644.761 779.828 646.004 C 777.95 654.594 734.573 670.617 724.2 677.301 C 713.262 684.35 705.938 689.658 695.452 697.622 C 694.768 698.062 693.42 698.605 692.626 698.962 L 691.86 697.73 C 692.663 695.423 692.928 694.814 694.276 692.707 C 712.477 664.268 743.344 651.359 775.496 645.245 z"/>
<path transform="translate(0,0)" fill="rgb(193,118,70)" d="M 863.348 653.849 C 868.105 652.127 876.157 648.35 880.519 649.956 C 880.457 652.764 878.779 655.364 876.672 656.947 C 852.209 675.333 815.705 682.869 786.662 686.737 C 782.317 686.086 774.56 686.881 771.84 684.326 C 778.847 673.61 845.22 663.967 863.348 653.849 z"/>
<path transform="translate(0,0)" fill="rgb(101,139,179)" d="M 930.218 1356.02 C 935.389 1342.04 949.81 1330.62 962.556 1323.7 C 980.739 1313.83 1008.03 1297.96 1021.8 1321.42 L 1023.35 1326.85 C 1026.65 1357.96 1018.88 1373.77 1004.07 1400.51 C 1005.4 1416.82 1007.09 1429.76 1004.66 1446.24 C 1000.13 1476.93 980.052 1496.3 953.509 1469.89 C 934.866 1451.35 918.352 1419.01 921.9 1391.94 L 922.645 1386.81 C 927.31 1381.71 955.77 1379.36 959.497 1371.12 L 958.343 1369.72 C 946.517 1366.39 936.547 1369.47 924.883 1372.14 C 926.588 1366.25 927.845 1361.7 930.218 1356.02 z"/>
<path transform="translate(0,0)" fill="rgb(76,108,144)" d="M 1023.35 1326.85 C 1026.65 1357.96 1018.88 1373.77 1004.07 1400.51 C 1005.4 1416.82 1007.09 1429.76 1004.66 1446.24 C 1000.13 1476.93 980.052 1496.3 953.509 1469.89 C 934.866 1451.35 918.352 1419.01 921.9 1391.94 C 935.322 1408.23 948.389 1434.13 972.941 1438.26 C 992.22 1439.53 987.838 1408.46 992.44 1399.64 C 1004.72 1376.09 1019.96 1353.85 1023.35 1326.85 z"/>
<path transform="translate(0,0)" fill="rgb(136,175,208)" d="M 930.218 1356.02 C 935.389 1342.04 949.81 1330.62 962.556 1323.7 C 980.739 1313.83 1008.03 1297.96 1021.8 1321.42 C 989.058 1323.12 976.308 1327.3 946.808 1346.63 C 942.545 1349.42 934.517 1357.54 930.218 1356.02 z"/>
<path transform="translate(0,0)" fill="rgb(221,148,79)" d="M 579.385 961.903 C 581.535 955.943 585.605 951.991 590.985 949.306 C 608.67 940.482 706.679 944.833 721.16 949.733 C 725.423 954.391 726.004 955.298 728.875 960.935 C 734.794 973.223 735.761 987.319 733.759 1000.64 C 731.055 1012.8 726.259 1023.44 715.928 1030.86 C 709.634 1031.8 700.944 1031.5 694.633 1030.92 C 661.105 1027.82 573.512 1012 578.246 964.613 L 579.385 961.903 z"/>
<path transform="translate(0,0)" fill="rgb(193,118,70)" d="M 578.246 964.613 C 585.035 969.827 591.034 976.468 598.625 980.389 C 622.116 992.524 648.238 999.249 674.261 1003.29 C 695.429 1006.57 713.445 1008.02 733.759 1000.64 C 731.055 1012.8 726.259 1023.44 715.928 1030.86 C 709.634 1031.8 700.944 1031.5 694.633 1030.92 C 661.105 1027.82 573.512 1012 578.246 964.613 z"/>
<path transform="translate(0,0)" fill="rgb(240,185,111)" d="M 579.385 961.903 C 581.535 955.943 585.605 951.991 590.985 949.306 C 608.67 940.482 706.679 944.833 721.16 949.733 C 725.423 954.391 726.004 955.298 728.875 960.935 C 719.914 963.325 669.134 956.165 656.184 956.686 C 641.674 957.27 620.506 951.68 604.812 954.534 C 592.449 955.457 590.078 959.474 580.76 962.365 L 579.385 961.903 z"/>
<path transform="translate(0,0)" fill="rgb(193,118,70)" d="M 639.861 976.084 C 656.111 974.963 673.737 979.162 688.573 985.614 C 672.98 987.265 653.513 984.19 639.861 976.084 z"/>
<path transform="translate(0,0)" fill="rgb(203,64,55)" d="M 1476.29 439.658 L 1480.29 440.336 C 1482.85 445.267 1478.51 458.282 1476.8 463.546 C 1469.79 485.065 1454.32 526.874 1438.22 541.404 C 1425.67 544.155 1372.3 547.81 1372.91 561.589 C 1377.92 570.161 1398.8 578.384 1408.16 581.345 C 1377.33 611.344 1342.7 623.253 1300.33 626.804 C 1296.65 624.345 1292.72 621.821 1289.18 619.222 C 1303.86 604.569 1324.25 584.457 1338.42 570.429 C 1347.12 561.823 1399.39 514.298 1402.76 508.16 C 1402.44 504.165 1402.52 505.392 1399.64 501.665 C 1413.02 490.087 1427.95 478.586 1441.83 467.592 C 1453.74 458.159 1465.51 450.55 1476.29 439.658 z"/>
<path transform="translate(0,0)" fill="rgb(235,93,70)" d="M 1356.1 476.554 C 1381.56 455.762 1442.97 441.131 1476.29 439.658 C 1465.51 450.55 1453.74 458.159 1441.83 467.592 C 1427.95 478.586 1413.02 490.087 1399.64 501.665 C 1382.58 511.796 1360.08 533.743 1345.52 547.571 C 1323.08 568.491 1301.14 589.933 1279.7 611.881 C 1273.77 607.903 1268.76 604.593 1263.23 600.087 C 1265.11 592.184 1268.35 577.01 1271.4 570.065 C 1278.41 547.593 1296.55 519.151 1315.28 504.723 C 1317.76 520.632 1318.61 528.725 1324.39 543.863 C 1326.92 545.021 1327.73 544.89 1330.49 545.132 C 1337.73 541.474 1341.73 521.292 1344.26 512.92 C 1347.91 500.704 1351.86 488.578 1356.1 476.554 z"/>
<path transform="translate(0,0)" fill="rgb(239,145,114)" d="M 1271.4 570.065 C 1278.41 547.593 1296.55 519.151 1315.28 504.723 C 1317.76 520.632 1318.61 528.725 1324.39 543.863 C 1315.43 541.942 1312.25 529.701 1308.74 522.072 C 1291.99 534.912 1284.33 553.262 1273.96 570.649 L 1271.4 570.065 z"/>
<path transform="translate(0,0)" fill="rgb(193,118,70)" d="M 981.302 1262.47 C 1031.5 1261.06 1070.02 1253.68 1116.91 1237.01 C 1118.07 1254.69 1119.55 1273.73 1120.12 1291.4 C 1102.7 1305.22 1087.94 1310.81 1066.82 1317.45 C 1055.71 1319.91 1047.69 1322.17 1036.09 1324.32 C 1034.49 1318.27 1032.71 1312.41 1028.9 1307.47 C 1014.7 1289.02 994.713 1299.78 984.198 1298.34 C 982.607 1296.14 982.771 1291.17 982.602 1288.15 C 981.671 1280.05 981.579 1270.71 981.302 1262.47 z"/>
<path transform="translate(0,0)" fill="rgb(221,148,79)" d="M 982.602 1288.15 C 993.062 1288.23 1005.53 1289.01 1015.53 1288.74 C 1031.66 1288.3 1051.01 1284.47 1066.83 1281.27 C 1067.33 1294.34 1067.27 1304.39 1066.82 1317.45 C 1055.71 1319.91 1047.69 1322.17 1036.09 1324.32 C 1034.49 1318.27 1032.71 1312.41 1028.9 1307.47 C 1014.7 1289.02 994.713 1299.78 984.198 1298.34 C 982.607 1296.14 982.771 1291.17 982.602 1288.15 z"/>
<path transform="translate(0,0)" fill="rgb(193,118,70)" d="M 1093.48 1265.24 L 1095.3 1266.16 C 1098.33 1274.25 1096.85 1286.44 1095.11 1294.79 C 1090.64 1285.12 1089.02 1275.11 1093.48 1265.24 z"/>
<path transform="translate(0,0)" fill="rgb(221,148,79)" d="M 1394.89 609.764 C 1395.03 609.879 1395.19 609.98 1395.32 610.11 C 1401.18 615.942 1398.48 702.245 1397.89 716.584 C 1384.2 700.535 1375.39 690.931 1360.03 676.5 C 1346.28 662.797 1330.52 650.456 1315.4 638.23 C 1348.55 633.717 1366.86 627.915 1394.89 609.764 z"/>
<path transform="translate(0,0)" fill="rgb(101,139,179)" d="M 853.868 1346.8 C 853.99 1330.56 861.481 1277.1 888.715 1303.39 C 893.577 1308.08 901.166 1321.84 900.229 1328.28 L 897.396 1330.27 C 874.291 1334.72 867.665 1377.02 871.719 1396.58 C 872.193 1398.97 872.819 1401.32 873.593 1403.64 C 867.43 1412.27 856.233 1416.83 846.029 1418.52 C 844.887 1418.72 843.743 1418.9 842.596 1419.06 C 844.091 1401.47 849.012 1390.28 853.355 1373.62 C 855.043 1367.14 852.581 1355.31 853.868 1346.8 z"/>
<path transform="translate(0,0)" fill="rgb(136,175,208)" d="M 853.868 1346.8 C 853.99 1330.56 861.481 1277.1 888.715 1303.39 C 893.577 1308.08 901.166 1321.84 900.229 1328.28 L 897.396 1330.27 C 888.339 1319.49 889.15 1315.28 876.234 1307.74 C 856.748 1324.8 861.99 1340.57 854.918 1354.74 C 854.082 1351.71 854.123 1349.92 853.868 1346.8 z"/>
<path transform="translate(0,0)" fill="rgb(101,139,179)" d="M 882.403 1375.89 C 885.135 1361.15 891.31 1345.83 906.423 1339.64 C 912.018 1337.35 915.507 1336.68 920.194 1340.81 C 921.084 1344.69 920.483 1344.02 918.591 1348.57 C 913.691 1361.39 911.101 1370.36 909.141 1384.09 C 908.965 1389.64 909.71 1410.25 907.77 1413.57 C 900.92 1417.21 896.053 1412.47 891.366 1407.26 C 883.205 1398.19 881.48 1387.77 882.403 1375.89 z"/>
<path transform="translate(0,0)" fill="rgb(76,108,144)" d="M 882.403 1375.89 L 884.057 1382.14 C 889.363 1385.08 892.395 1386.31 898.242 1387.89 L 909.141 1384.09 C 908.965 1389.64 909.71 1410.25 907.77 1413.57 C 900.92 1417.21 896.053 1412.47 891.366 1407.26 C 883.205 1398.19 881.48 1387.77 882.403 1375.89 z"/>
<path transform="translate(0,0)" fill="rgb(136,175,208)" d="M 882.403 1375.89 C 885.135 1361.15 891.31 1345.83 906.423 1339.64 C 912.018 1337.35 915.507 1336.68 920.194 1340.81 C 921.084 1344.69 920.483 1344.02 918.591 1348.57 C 913.12 1349.82 908.797 1350.6 903.292 1351.47 C 886.584 1365.36 891.143 1372.17 884.057 1382.14 L 882.403 1375.89 z"/>
<path transform="translate(0,0)" fill="rgb(76,108,144)" d="M 873.593 1403.64 C 878.093 1412.71 880.452 1416.23 889.135 1422.37 C 883.032 1433.81 875.41 1446.21 862.31 1450.03 C 841.725 1456.02 841.12 1432.1 842.596 1419.06 C 843.743 1418.9 844.887 1418.72 846.029 1418.52 C 856.233 1416.83 867.43 1412.27 873.593 1403.64 z"/>
</svg>